<?xml version="1.0" encoding="utf-8"?>
<!DOCTYPE svg PUBLIC "-//W3C//DTD SVG 1.1//EN" "http://www.w3.org/Graphics/SVG/1.1/DTD/svg11.dtd">
<svg version="1.1" baseProfile="full"
 xmlns="http://www.w3.org/2000/svg"
 xmlns:xlink="http://www.w3.org/1999/xlink"
 xmlns:ev="http://www.w3.org/2001/xml-events" 
  height="127px" 
  width="110px" 
>
<path fill="rgb( 255, 255, 255 )"
 d="M0,104.885 C0,104.885 0,103.625 0,103.625 C0,103.625 110,103.625 110,103.625 C110,103.625 110,104.885 110,104.885 C110,104.885 0,104.885 0,104.885 ZM94.603,92.92 C94.603,92.92 94.062,93.729 94.062,93.729 C94.062,93.729 93.503,93.022 93.503,93.022 C93.503,93.022 77.225,78.453 77.225,78.453 C77.225,78.453 77.232,68.615 77.232,68.615 C77.232,68.615 65.916,88.486 65.916,88.486 C65.916,88.486 46.23,93.395 46.23,93.395 C46.23,93.395 46.23,93.452 46.23,93.452 C46.23,93.452 30.716,71.937 30.716,71.937 C30.716,71.937 30.509,83.312 30.509,83.312 C30.509,83.312 16.509,93.111 16.509,93.111 C16.509,93.111 16.511,93.111 16.511,93.111 C16.511,93.111 15.993,93.729 15.993,93.729 C15.993,93.729 15.502,93.065 15.502,93.065 C15.502,93.065 15.501,93.101 15.501,93.101 C15.501,93.101 0.374,81.729 0.374,81.729 C0.374,81.729 0.374,1.011 0.374,1.011 C0.374,1.011 0.36199999999999,0 0.36199999999999,0 C0.36199999999999,0 18.593,2.791 18.593,2.791 C18.593,2.791 51.953,49.943 51.953,49.943 C51.953,49.943 78.287,3.67 78.287,3.67 C78.287,3.67 78.526,3.63200000000001 78.526,3.63200000000001 C78.526,3.63200000000001 98.812,0.331 98.812,0.331 C98.812,0.331 99.093,0.683 99.093,0.683 C99.093,0.683 99.225,0.815 99.225,0.815 C99.225,0.815 109.638,13.011 109.638,13.011 C109.638,13.011 109.638,77.944 109.638,77.944 C109.638,77.944 109.491,78.091 109.491,78.091 C109.491,78.091 94.603,92.92 94.603,92.92 ZM93.503,91.669 C93.503,91.669 93.503,40.336 93.503,40.336 C93.503,40.336 78.242,67.155 78.242,67.155 C78.242,67.155 78.234,78.004 78.234,78.004 C78.234,78.004 93.503,91.669 93.503,91.669 ZM16.507,91.882 C16.507,91.882 29.508,82.78 29.508,82.78 C29.508,82.78 29.731,70.559 29.731,70.559 C29.731,70.559 28.879,69.367 28.879,69.367 C28.879,69.367 16.421,52.467 16.421,52.467 C16.421,52.467 16.507,91.882 16.507,91.882 ZM18.021,3.73099999999999 C18.021,3.73099999999999 2.29600000000001,1.557 2.29600000000001,1.557 C2.29600000000001,1.557 44.897,62.333 44.897,62.333 C44.897,62.333 51.361,50.851 51.361,50.851 C51.361,50.851 18.021,3.73099999999999 18.021,3.73099999999999 ZM78.926,4.58799999999999 C78.926,4.58799999999999 45.442,63.418 45.442,63.418 C45.442,63.418 44.99,64.221 44.99,64.221 C44.99,64.221 44.987,64.217 44.987,64.217 C44.987,64.217 44.986,64.219 44.986,64.219 C44.986,64.219 44.402,63.385 44.402,63.385 C44.402,63.385 1.383,2.44 1.383,2.44 C1.383,2.44 1.383,81.225 1.383,81.225 C1.383,81.225 15.498,91.836 15.498,91.836 C15.498,91.836 15.495,90.8 15.495,90.8 C15.495,90.8 15.387,48.758 15.387,48.758 C15.387,48.758 29.659,68.725 29.659,68.725 C29.659,68.725 30.749,70.203 30.749,70.203 C30.749,70.203 30.748,70.247 30.748,70.247 C30.748,70.247 46.307,92.016 46.307,92.016 C46.307,92.016 97.654,1.541 97.654,1.541 C97.654,1.541 78.926,4.58799999999999 78.926,4.58799999999999 ZM108.63,13.383 C108.63,13.383 98.695,1.75 98.695,1.75 C98.695,1.75 80.723,33.417 80.723,33.417 C80.723,33.417 47.379,92.176 47.379,92.176 C47.379,92.176 65.25,87.615 65.25,87.615 C65.25,87.615 94.512,36.231 94.512,36.231 C94.512,36.231 94.512,36.525 94.512,36.525 C94.512,36.525 94.52,36.511 94.52,36.511 C94.52,36.511 94.512,91.582 94.512,91.582 C94.512,91.582 108.63,77.527 108.63,77.527 C108.63,77.527 108.63,13.383 108.63,13.383 ZM29.847,118.717 C29.847,119.434 29.489,120.302 28.909,120.78 C29.882,121.274 30.342,122.161 30.342,123.217 C30.325,125.296 29.063,126.983 26.623,126.983 C26.623,126.983 21.029,126.983 21.029,126.983 C21.029,126.983 21.029,115.054 21.029,115.054 C21.029,115.054 26.129,115.054 26.129,115.054 C28.193,115.054 29.847,116.656 29.847,118.717 ZM23.98,124.273 C23.98,124.273 26.419,124.273 26.419,124.273 C27.647,124.273 27.63,122.245 26.402,122.245 C26.402,122.245 23.98,122.245 23.98,122.245 C23.98,122.245 23.98,124.273 23.98,124.273 ZM23.98,117.78 C23.98,117.78 23.98,119.707 23.98,119.707 C23.98,119.707 25.907,119.707 25.907,119.707 C27.118,119.707 27.118,117.78 25.89,117.78 C25.89,117.78 23.98,117.78 23.98,117.78 ZM44.74,114.9 C44.74,114.9 50.13,126.54 50.13,126.54 C50.13,126.54 50.13,126.983 50.13,126.983 C50.13,126.983 47.145,126.983 47.145,126.983 C47.145,126.983 46.445,125.484 46.445,125.484 C46.445,125.484 41.738,125.484 41.738,125.484 C41.738,125.484 41.038,126.983 41.038,126.983 C41.038,126.983 38.053,126.983 38.053,126.983 C38.053,126.983 38.053,126.54 38.053,126.54 C38.053,126.54 43.427,114.9 43.427,114.9 C43.427,114.9 44.74,114.9 44.74,114.9 ZM45.456,122.876 C45.456,122.876 44.075,119.74 44.075,119.74 C44.075,119.74 42.727,122.876 42.727,122.876 C42.727,122.876 45.456,122.876 45.456,122.876 ZM65.669,120.899 C65.669,120.899 65.669,115.054 65.669,115.054 C66.71,115.054 67.75,115.054 68.791,115.054 C68.791,115.054 68.791,127 68.791,127 C68.791,127 67.699,127 67.699,127 C67.699,127 61.678,121.121 61.678,121.121 C61.678,121.121 61.678,126.983 61.678,126.983 C60.62,126.983 59.563,126.983 58.522,126.983 C58.522,126.983 58.522,115.002 58.522,115.002 C58.522,115.002 59.631,115.002 59.631,115.002 C59.631,115.002 65.669,120.899 65.669,120.899 ZM81.773,119.57 C81.773,119.57 81.995,119.57 81.995,119.57 C85.048,119.57 84.894,117.286 84.894,115.054 C85.935,115.054 86.975,115.054 88.033,115.054 C88.033,117.491 88.101,119.74 85.731,121.257 C85.731,121.257 88.971,126.506 88.971,126.506 C88.971,126.506 88.971,126.983 88.971,126.983 C88.971,126.983 85.577,126.983 85.577,126.983 C85.577,126.983 82.95,122.365 82.95,122.365 C82.54,122.433 82.165,122.433 81.773,122.433 C81.773,122.433 81.773,126.983 81.773,126.983 C80.716,126.983 79.692,126.983 78.668,126.983 C78.668,126.983 78.668,115.054 78.668,115.054 C79.692,115.054 80.716,115.054 81.773,115.054 C81.773,115.054 81.773,119.57 81.773,119.57 Z "/>
</svg>
