<?xml version="1.0" encoding="utf-8"?>
<!DOCTYPE svg PUBLIC "-//W3C//DTD SVG 1.1//EN" "http://www.w3.org/Graphics/SVG/1.1/DTD/svg11.dtd">
<svg version="1.1" baseProfile="full"
 xmlns="http://www.w3.org/2000/svg"
 xmlns:xlink="http://www.w3.org/1999/xlink"
 xmlns:ev="http://www.w3.org/2001/xml-events" 
  height="64px" 
  width="66px" 
>
<defs>
<linearGradient id="PSgrad_0" x1="0%" x2="30.902%" y1="95.106%" y2="0%">
  <stop offset="0%" stop-color="rgb(18,71,143)" stop-opacity="1" />
  <stop offset="100%" stop-color="rgb(233,50,50)" stop-opacity="1" />
</linearGradient>

</defs><path fill="rgb( 0, 0, 0 )"
 d="M64.999,23 C64.999,10.298 54.254,0 40.999,0 C31.193,0 22.766,5.6389999999999 19.042,13.7159999999999 C8.66999999999996,16.2560000000001 1,25.269 1,36 C0.86500000000001,46.242 8.61500000000001,52.326 1,64 C1,64 11.782,59 25.99,59 C26.894,59 27.684,58.9190000000001 28.375,58.77 C36.296,57.701 42.967,52.924 46.4349999999999,46.3340000000001 C57.345,47.451 64.999,51 64.999,51 C57.385,39.326 65.135,33.242 64.999,23 ZM27.841,54.806 C27.841,54.806 27.6849999999999,54.826 27.6849999999999,54.826 C27.6849999999999,54.826 27.5309999999999,54.8599999999999 27.5309999999999,54.8599999999999 C27.099,54.953 26.58,55 25.99,55 C18.949,55 12.7190000000001,56.1479999999999 8.053,57.383 C8.95500000000004,52.442 7.721,48.2919999999999 6.58399999999995,44.4739999999999 C5.74900000000002,41.6679999999999 4.96100000000001,39.0170000000001 5,36.0530000000001 C5,36.0530000000001 5,36.027 5,36.027 C5,36.027 5,36 5,36 C5,28.0519999999999 10.17,21.2370000000001 17.479,18.4059999999999 C19.804,17.5070000000001 22.34,17 25,17 C36.028,17 45,25.5229999999999 45,36 C45,39.652 43.876,43.0999999999999 41.941,46.0340000000001 C38.894,50.654 33.823,53.998 27.841,54.806 Z "/>
<path fill="url(#PSgrad_0)"
 d="M64.999,23 C64.999,10.298 54.254,0 40.999,0 C31.193,0 22.766,5.6389999999999 19.042,13.7159999999999 C8.66999999999996,16.2560000000001 1,25.269 1,36 C0.86500000000001,46.242 8.61500000000001,52.326 1,64 C1,64 11.782,59 25.99,59 C26.894,59 27.684,58.9190000000001 28.375,58.77 C36.296,57.701 42.967,52.924 46.4349999999999,46.3340000000001 C57.345,47.451 64.999,51 64.999,51 C57.385,39.326 65.135,33.242 64.999,23 ZM27.841,54.806 C27.841,54.806 27.6849999999999,54.826 27.6849999999999,54.826 C27.6849999999999,54.826 27.5309999999999,54.8599999999999 27.5309999999999,54.8599999999999 C27.099,54.953 26.58,55 25.99,55 C18.949,55 12.7190000000001,56.1479999999999 8.053,57.383 C8.95500000000004,52.442 7.721,48.2919999999999 6.58399999999995,44.4739999999999 C5.74900000000002,41.6679999999999 4.96100000000001,39.0170000000001 5,36.0530000000001 C5,36.0530000000001 5,36.027 5,36.027 C5,36.027 5,36 5,36 C5,28.0519999999999 10.17,21.2370000000001 17.479,18.4059999999999 C19.804,17.5070000000001 22.34,17 25,17 C36.028,17 45,25.5229999999999 45,36 C45,39.652 43.876,43.0999999999999 41.941,46.0340000000001 C38.894,50.654 33.823,53.998 27.841,54.806 Z "/>
</svg>
