<?xml version="1.0" encoding="utf-8"?>
<!DOCTYPE svg PUBLIC "-//W3C//DTD SVG 1.1//EN" "http://www.w3.org/Graphics/SVG/1.1/DTD/svg11.dtd">
<svg version="1.1" baseProfile="full"
 xmlns="http://www.w3.org/2000/svg"
 xmlns:xlink="http://www.w3.org/1999/xlink"
 xmlns:ev="http://www.w3.org/2001/xml-events" 
  height="64px" 
  width="64px" 
>
<defs>
<linearGradient id="PSgrad_0" x1="0%" x2="30.902%" y1="95.106%" y2="0%">
  <stop offset="0%" stop-color="rgb(18,71,143)" stop-opacity="1" />
  <stop offset="100%" stop-color="rgb(233,50,50)" stop-opacity="1" />
</linearGradient>

</defs><path fill="rgb( 0, 0, 0 )"
 d="M63.983,37.874 C63.801,32.318 51.735,30.164 43.003,30.01 C43.003,30.01 43.003,7.87400000000002 43.003,7.87400000000002 C43.003,7.87400000000002 42.988,7.87400000000002 42.988,7.87400000000002 C42.8,2.10200000000009 29.777,0 20.999,0 C10.965,0 0.17700000000002,2.4670000000001 0.01100000000002,7.87400000000002 C0.01100000000002,7.87400000000002 0.00299999999999,7.87400000000002 0.00299999999999,7.87400000000002 C0.00299999999999,7.87400000000002 0.00299999999999,44.126 0.00299999999999,44.126 C0.00299999999999,49.4480000000001 10.788,51.9179999999999 20.997,51.9960000000001 C20.997,51.9960000000001 20.997,56.126 20.997,56.126 C20.997,61.5360000000001 32.142,64 42.497,64 C52.853,64 63.997,61.5360000000001 63.997,56.126 C63.997,56.126 63.997,37.874 63.997,37.874 C63.997,37.874 63.983,37.874 63.983,37.874 ZM24.997,42.9570000000001 C29.077,45.0250000000001 35.685,46 41.994,46 C44.439,46 47.212,45.836 49.945,45.4770000000001 C49.945,45.4770000000001 49.945,50.451 49.945,50.451 C47.638,50.7829999999999 44.983,51 41.994,51 C31.258,51 25.214,48.1890000000001 24.997,47 C24.997,47 24.997,42.9570000000001 24.997,42.9570000000001 ZM59.974,38 C59.366,39.2449999999999 52.776,42 41.994,42 C31.261,42 25.218,39.192 24.997,38.009 C24.997,38.009 24.997,38.0070000000001 24.997,38.0070000000001 C25.218,36.808 31.261,34 41.994,34 C52.776,34 59.366,36.7539999999999 59.974,38 ZM4.00299999999999,8.00700000000006 C4.22300000000001,6.80799999999999 10.267,4 20.999,4 C31.782,4 38.372,6.75399999999991 38.979,8 C38.372,9.24499999999989 31.782,12 20.999,12 C10.267,12 4.22300000000001,9.19100000000003 4.00299999999999,8.00900000000001 C4.00299999999999,8.00900000000001 4.00299999999999,8.00700000000006 4.00299999999999,8.00700000000006 ZM4.00299999999999,12.9570000000001 C8.08199999999999,15.0260000000001 14.69,16 20.999,16 C23.766,16 26.952,15.788 30.028,15.3219999999999 C30.028,15.3219999999999 30.028,20.288 30.028,20.288 C27.489,20.7149999999999 24.462,21 20.999,21 C10.263,21 4.21899999999999,18.1890000000001 4.00299999999999,17 C4.00299999999999,17 4.00299999999999,12.9570000000001 4.00299999999999,12.9570000000001 ZM4.00299999999999,21.9570000000001 C8.08199999999999,24.0260000000001 14.69,25 20.999,25 C23.766,25 26.952,24.788 30.028,24.3219999999999 C30.028,24.3219999999999 30.028,29.288 30.028,29.288 C27.489,29.7149999999999 24.462,30 20.999,30 C10.263,30 4.21899999999999,27.1890000000001 4.00299999999999,26 C4.00299999999999,26 4.00299999999999,21.9570000000001 4.00299999999999,21.9570000000001 ZM4.00299999999999,30.9570000000001 C8.08199999999999,33.0250000000001 14.69,34 20.999,34 C21.798,34 22.636,33.98 23.491,33.943 C21.97,35.02 21.053,36.326 21.005,37.874 C21.005,37.874 20.997,37.874 20.997,37.874 C20.997,37.874 20.997,39 20.997,39 C10.263,39 4.21899999999999,36.1900000000001 4.00299999999999,35 C4.00299999999999,35 4.00299999999999,30.9570000000001 4.00299999999999,30.9570000000001 ZM4.00299999999999,44.126 C4.00299999999999,44.126 4.00299999999999,39.9570000000001 4.00299999999999,39.9570000000001 C8.08100000000002,42.0250000000001 14.688,43 20.997,43 C20.997,43 20.997,47.992 20.997,47.992 C10.028,47.9069999999999 4.31700000000001,45.1489999999999 4.00299999999999,44.126 ZM24.997,56.126 C24.997,56.126 24.997,51.9570000000001 24.997,51.9570000000001 C29.077,54.0260000000001 35.685,55 41.994,55 C44.439,55 47.212,54.836 49.945,54.4770000000001 C49.945,54.4770000000001 49.945,59.5409999999999 49.945,59.5409999999999 C47.802,59.8230000000001 45.319,60 42.497,60 C31.19,60 25.316,57.164 24.997,56.126 Z "/>
<path fill="url(#PSgrad_0)"
 d="M63.983,37.874 C63.801,32.318 51.735,30.164 43.003,30.01 C43.003,30.01 43.003,7.87400000000002 43.003,7.87400000000002 C43.003,7.87400000000002 42.988,7.87400000000002 42.988,7.87400000000002 C42.8,2.10200000000009 29.777,0 20.999,0 C10.965,0 0.17700000000002,2.4670000000001 0.01100000000002,7.87400000000002 C0.01100000000002,7.87400000000002 0.00299999999999,7.87400000000002 0.00299999999999,7.87400000000002 C0.00299999999999,7.87400000000002 0.00299999999999,44.126 0.00299999999999,44.126 C0.00299999999999,49.4480000000001 10.788,51.9179999999999 20.997,51.9960000000001 C20.997,51.9960000000001 20.997,56.126 20.997,56.126 C20.997,61.5360000000001 32.142,64 42.497,64 C52.853,64 63.997,61.5360000000001 63.997,56.126 C63.997,56.126 63.997,37.874 63.997,37.874 C63.997,37.874 63.983,37.874 63.983,37.874 ZM24.997,42.9570000000001 C29.077,45.0250000000001 35.685,46 41.994,46 C44.439,46 47.212,45.836 49.945,45.4770000000001 C49.945,45.4770000000001 49.945,50.451 49.945,50.451 C47.638,50.7829999999999 44.983,51 41.994,51 C31.258,51 25.214,48.1890000000001 24.997,47 C24.997,47 24.997,42.9570000000001 24.997,42.9570000000001 ZM59.974,38 C59.366,39.2449999999999 52.776,42 41.994,42 C31.261,42 25.218,39.192 24.997,38.009 C24.997,38.009 24.997,38.0070000000001 24.997,38.0070000000001 C25.218,36.808 31.261,34 41.994,34 C52.776,34 59.366,36.7539999999999 59.974,38 ZM4.00299999999999,8.00700000000006 C4.22300000000001,6.80799999999999 10.267,4 20.999,4 C31.782,4 38.372,6.75399999999991 38.979,8 C38.372,9.24499999999989 31.782,12 20.999,12 C10.267,12 4.22300000000001,9.19100000000003 4.00299999999999,8.00900000000001 C4.00299999999999,8.00900000000001 4.00299999999999,8.00700000000006 4.00299999999999,8.00700000000006 ZM4.00299999999999,12.9570000000001 C8.08199999999999,15.0260000000001 14.69,16 20.999,16 C23.766,16 26.952,15.788 30.028,15.3219999999999 C30.028,15.3219999999999 30.028,20.288 30.028,20.288 C27.489,20.7149999999999 24.462,21 20.999,21 C10.263,21 4.21899999999999,18.1890000000001 4.00299999999999,17 C4.00299999999999,17 4.00299999999999,12.9570000000001 4.00299999999999,12.9570000000001 ZM4.00299999999999,21.9570000000001 C8.08199999999999,24.0260000000001 14.69,25 20.999,25 C23.766,25 26.952,24.788 30.028,24.3219999999999 C30.028,24.3219999999999 30.028,29.288 30.028,29.288 C27.489,29.7149999999999 24.462,30 20.999,30 C10.263,30 4.21899999999999,27.1890000000001 4.00299999999999,26 C4.00299999999999,26 4.00299999999999,21.9570000000001 4.00299999999999,21.9570000000001 ZM4.00299999999999,30.9570000000001 C8.08199999999999,33.0250000000001 14.69,34 20.999,34 C21.798,34 22.636,33.98 23.491,33.943 C21.97,35.02 21.053,36.326 21.005,37.874 C21.005,37.874 20.997,37.874 20.997,37.874 C20.997,37.874 20.997,39 20.997,39 C10.263,39 4.21899999999999,36.1900000000001 4.00299999999999,35 C4.00299999999999,35 4.00299999999999,30.9570000000001 4.00299999999999,30.9570000000001 ZM4.00299999999999,44.126 C4.00299999999999,44.126 4.00299999999999,39.9570000000001 4.00299999999999,39.9570000000001 C8.08100000000002,42.0250000000001 14.688,43 20.997,43 C20.997,43 20.997,47.992 20.997,47.992 C10.028,47.9069999999999 4.31700000000001,45.1489999999999 4.00299999999999,44.126 ZM24.997,56.126 C24.997,56.126 24.997,51.9570000000001 24.997,51.9570000000001 C29.077,54.0260000000001 35.685,55 41.994,55 C44.439,55 47.212,54.836 49.945,54.4770000000001 C49.945,54.4770000000001 49.945,59.5409999999999 49.945,59.5409999999999 C47.802,59.8230000000001 45.319,60 42.497,60 C31.19,60 25.316,57.164 24.997,56.126 Z "/>
</svg>
