<?xml version="1.0" encoding="utf-8"?>
<!DOCTYPE svg PUBLIC "-//W3C//DTD SVG 1.1//EN" "http://www.w3.org/Graphics/SVG/1.1/DTD/svg11.dtd">
<svg version="1.1" baseProfile="full"
 xmlns="http://www.w3.org/2000/svg"
 xmlns:xlink="http://www.w3.org/1999/xlink"
 xmlns:ev="http://www.w3.org/2001/xml-events" 
  height="54px" 
  width="64px" 
>
<defs>
<linearGradient id="PSgrad_0" x1="0%" x2="30.902%" y1="95.106%" y2="0%">
  <stop offset="0%" stop-color="rgb(18,71,143)" stop-opacity="1" />
  <stop offset="100%" stop-color="rgb(233,50,50)" stop-opacity="1" />
</linearGradient>

</defs><path fill="rgb( 0, 0, 0 )"
 d="M64,54 C64,54 64,50 64,50 C64,50 64,47 64,47 C64,47 64,43 64,43 C64,43 64,40 64,40 C64,40 64,36 64,36 C64,36 64,0 64,0 C64,0 0,0 0,0 C0,0 0,36 0,36 C0,36 0,40 0,40 C0,40 0,43 0,43 C0,43 0,47 0,47 C0,47 0,50 0,50 C0,50 0,54 0,54 M60,9.99800000000005 C59.99,9.99800000000005 59.981,10 59.971,10 C56.662,10 53.971,7.30899999999997 53.971,4 C53.971,4 60,4 60,4 C60,4 60,9.99800000000005 60,9.99800000000005 ZM49.971,4 C49.971,9.5139999999999 54.4559999999999,14 59.971,14 C59.981,14 59.99,13.998 60,13.998 C60,13.998 60,26.002 60,26.002 C59.99,26.002 59.981,26 59.971,26 C54.4559999999999,26 49.971,30.4860000000001 49.971,36 C49.971,36 13.9939999999999,36 13.9939999999999,36 C13.9939999999999,30.4880000000001 9.51199999999994,26.0029999999999 4,26 C4,26 4,14 4,14 C9.51199999999994,13.9970000000001 13.9939999999999,9.51199999999994 13.9939999999999,4 C13.9939999999999,4 49.971,4 49.971,4 ZM9.99399999999991,4 C9.99399999999991,7.30700000000002 7.30700000000002,9.99700000000007 4,10 C4,10 4,4 4,4 C4,4 9.99399999999991,4 9.99399999999991,4 ZM4,30 C7.30700000000002,30.0029999999999 9.99399999999991,32.693 9.99399999999991,36 C9.99399999999991,36 4,36 4,36 C4,36 4,30 4,30 ZM4,40 C4,40 33.9939999999999,40 33.9939999999999,40 C33.9939999999999,40 36.9939999999999,43 36.9939999999999,43 C36.9939999999999,43 4,43 4,43 C4,43 4,40 4,40 ZM4,47 C4,47 40.9939999999999,47 40.9939999999999,47 C40.9939999999999,47 43.9939999999999,50 43.9939999999999,50 C43.9939999999999,50 4,50 4,50 C4,50 4,47 4,47 ZM4,54 C4,54 47.9939999999999,54 47.9939999999999,54 M53.971,36 C53.971,32.692 56.662,30 59.971,30 C59.981,30 59.99,30.002 60,30.0029999999999 C60,30.0029999999999 60,36 60,36 C60,36 53.971,36 53.971,36 ZM32,32.037 C38.617,32.037 44,26.6369999999999 44,20 C44,13.3620000000001 38.617,7.96299999999997 32,7.96299999999997 C25.383,7.96299999999997 20,13.3620000000001 20,20 C20,26.6369999999999 25.383,32.037 32,32.037 ZM30.9839999999999,13.1099999999999 C30.9839999999999,13.1099999999999 30.9839999999999,11 30.9839999999999,11 C30.9839999999999,11 32.9839999999999,11 32.9839999999999,11 C32.9839999999999,11 32.9839999999999,13.0719999999999 32.9839999999999,13.0719999999999 C33.8630000000001,13.2850000000001 34.6479999999999,13.789 35.213,14.5309999999999 C35.213,14.5309999999999 33.623,15.7439999999999 33.623,15.7439999999999 C33.24,15.242 32.6590000000001,14.954 32.029,14.954 C30.9269999999999,14.954 30.029,15.8520000000001 30.029,16.954 C30.029,18.057 30.9269999999999,18.954 32.029,18.954 C34.2349999999999,18.954 36.029,20.748 36.029,22.954 C36.029,24.829 34.729,26.395 32.9839999999999,26.826 C32.9839999999999,26.826 32.9839999999999,29.037 32.9839999999999,29.037 C32.9839999999999,29.037 30.9839999999999,29.037 30.9839999999999,29.037 C30.9839999999999,29.037 30.9839999999999,26.8009999999999 30.9839999999999,26.8009999999999 C30.1790000000001,26.5840000000001 29.451,26.1310000000001 28.913,25.463 C28.913,25.463 30.47,24.2070000000001 30.47,24.2070000000001 C30.8530000000001,24.682 31.421,24.954 32.029,24.954 C33.133,24.954 34.029,24.057 34.029,22.954 C34.029,21.8520000000001 33.133,20.954 32.029,20.954 C29.8240000000001,20.954 28.029,19.1600000000001 28.029,16.954 C28.029,15.1130000000001 29.287,13.5730000000001 30.9839999999999,13.1099999999999 Z "/>
<path fill="url(#PSgrad_0)"
 d="M64,54 C64,54 64,50 64,50 C64,50 64,47 64,47 C64,47 64,43 64,43 C64,43 64,40 64,40 C64,40 64,36 64,36 C64,36 64,0 64,0 C64,0 0,0 0,0 C0,0 0,36 0,36 C0,36 0,40 0,40 C0,40 0,43 0,43 C0,43 0,47 0,47 C0,47 0,50 0,50 C0,50 0,54 0,54 M60,9.99800000000005 C59.99,9.99800000000005 59.981,10 59.971,10 C56.662,10 53.971,7.30899999999997 53.971,4 C53.971,4 60,4 60,4 C60,4 60,9.99800000000005 60,9.99800000000005 ZM49.971,4 C49.971,9.5139999999999 54.4559999999999,14 59.971,14 C59.981,14 59.99,13.998 60,13.998 C60,13.998 60,26.002 60,26.002 C59.99,26.002 59.981,26 59.971,26 C54.4559999999999,26 49.971,30.4860000000001 49.971,36 C49.971,36 13.9939999999999,36 13.9939999999999,36 C13.9939999999999,30.4880000000001 9.51199999999994,26.0029999999999 4,26 C4,26 4,14 4,14 C9.51199999999994,13.9970000000001 13.9939999999999,9.51199999999994 13.9939999999999,4 C13.9939999999999,4 49.971,4 49.971,4 ZM9.99399999999991,4 C9.99399999999991,7.30700000000002 7.30700000000002,9.99700000000007 4,10 C4,10 4,4 4,4 C4,4 9.99399999999991,4 9.99399999999991,4 ZM4,30 C7.30700000000002,30.0029999999999 9.99399999999991,32.693 9.99399999999991,36 C9.99399999999991,36 4,36 4,36 C4,36 4,30 4,30 ZM4,40 C4,40 33.9939999999999,40 33.9939999999999,40 C33.9939999999999,40 36.9939999999999,43 36.9939999999999,43 C36.9939999999999,43 4,43 4,43 C4,43 4,40 4,40 ZM4,47 C4,47 40.9939999999999,47 40.9939999999999,47 C40.9939999999999,47 43.9939999999999,50 43.9939999999999,50 C43.9939999999999,50 4,50 4,50 C4,50 4,47 4,47 ZM4,54 C4,54 47.9939999999999,54 47.9939999999999,54 M53.971,36 C53.971,32.692 56.662,30 59.971,30 C59.981,30 59.99,30.002 60,30.0029999999999 C60,30.0029999999999 60,36 60,36 C60,36 53.971,36 53.971,36 ZM32,32.037 C38.617,32.037 44,26.6369999999999 44,20 C44,13.3620000000001 38.617,7.96299999999997 32,7.96299999999997 C25.383,7.96299999999997 20,13.3620000000001 20,20 C20,26.6369999999999 25.383,32.037 32,32.037 ZM30.9839999999999,13.1099999999999 C30.9839999999999,13.1099999999999 30.9839999999999,11 30.9839999999999,11 C30.9839999999999,11 32.9839999999999,11 32.9839999999999,11 C32.9839999999999,11 32.9839999999999,13.0719999999999 32.9839999999999,13.0719999999999 C33.8630000000001,13.2850000000001 34.6479999999999,13.789 35.213,14.5309999999999 C35.213,14.5309999999999 33.623,15.7439999999999 33.623,15.7439999999999 C33.24,15.242 32.6590000000001,14.954 32.029,14.954 C30.9269999999999,14.954 30.029,15.8520000000001 30.029,16.954 C30.029,18.057 30.9269999999999,18.954 32.029,18.954 C34.2349999999999,18.954 36.029,20.748 36.029,22.954 C36.029,24.829 34.729,26.395 32.9839999999999,26.826 C32.9839999999999,26.826 32.9839999999999,29.037 32.9839999999999,29.037 C32.9839999999999,29.037 30.9839999999999,29.037 30.9839999999999,29.037 C30.9839999999999,29.037 30.9839999999999,26.8009999999999 30.9839999999999,26.8009999999999 C30.1790000000001,26.5840000000001 29.451,26.1310000000001 28.913,25.463 C28.913,25.463 30.47,24.2070000000001 30.47,24.2070000000001 C30.8530000000001,24.682 31.421,24.954 32.029,24.954 C33.133,24.954 34.029,24.057 34.029,22.954 C34.029,21.8520000000001 33.133,20.954 32.029,20.954 C29.8240000000001,20.954 28.029,19.1600000000001 28.029,16.954 C28.029,15.1130000000001 29.287,13.5730000000001 30.9839999999999,13.1099999999999 Z "/>
</svg>
