<?xml version="1.0" encoding="utf-8"?>
<!DOCTYPE svg PUBLIC "-//W3C//DTD SVG 1.1//EN" "http://www.w3.org/Graphics/SVG/1.1/DTD/svg11.dtd">
<svg version="1.1" baseProfile="full"
 xmlns="http://www.w3.org/2000/svg"
 xmlns:xlink="http://www.w3.org/1999/xlink"
 xmlns:ev="http://www.w3.org/2001/xml-events" 
  height="56px" 
  width="67px" 
>
<defs>
<linearGradient id="PSgrad_0" x1="0%" x2="30.902%" y1="95.106%" y2="0%">
  <stop offset="0%" stop-color="rgb(18,71,143)" stop-opacity="1" />
  <stop offset="100%" stop-color="rgb(233,50,50)" stop-opacity="1" />
</linearGradient>

</defs><path fill="rgb( 0, 0, 0 )"
 d="M54.5069999999999,41.4010000000001 C53.048,40.954 53.14,38.769 53.14,38.7570000000001 C53.138,38.6379999999999 53.138,38.5170000000001 53.138,38.394 C53.138,37.251 53.268,36.442 53.549,35.847 C53.931,35.0360000000001 54.384,33.671 54.546,32.4459999999999 C55,31.9190000000001 55.619,30.8800000000001 56.016,28.8989999999999 C56.365,27.155 56.203,26.519 55.971,25.923 C55.947,25.8610000000001 55.922,25.798 55.902,25.73 C55.817,25.327 55.937,23.202 56.236,21.5519999999999 C56.442,20.4190000000001 56.183,18.0129999999999 54.622,16.0219999999999 C53.636,14.7629999999999 51.751,13.2180000000001 48.365,13.0050000000001 C48.365,13.0050000000001 47.75,13.0050000000001 47.75,13.0050000000001 C47.75,13.0050000000001 47.748,13.0050000000001 47.748,13.0050000000001 C47.748,13.0050000000001 47.748,13.0050000000001 47.748,13.0050000000001 C47.748,13.0050000000001 47.1319999999999,13.0050000000001 47.1319999999999,13.0050000000001 C43.746,13.2180000000001 41.861,14.7629999999999 40.876,16.0219999999999 C39.3150000000001,18.0129999999999 39.055,20.4190000000001 39.2619999999999,21.5519999999999 C39.561,23.202 39.682,25.327 39.596,25.73 C39.576,25.798 39.551,25.8610000000001 39.528,25.923 C39.295,26.519 39.1319999999999,27.155 39.482,28.8989999999999 C39.879,30.8800000000001 40.498,31.9190000000001 40.953,32.4459999999999 C41.115,33.671 41.568,35.0360000000001 41.948,35.847 C42.229,36.442 42.36,37.251 42.36,38.394 C42.36,38.5170000000001 42.36,38.6379999999999 42.3579999999999,38.7570000000001 C42.3579999999999,38.7629999999999 42.374,39.2650000000001 42.2380000000001,39.835 C40.172,38.0229999999999 37.001,36.405 32.154,34.925 C32.014,34.7819999999999 31.877,34.1690000000001 31.884,33.806 C31.884,33.806 31.891,33.7139999999999 31.891,33.7139999999999 C31.891,33.7139999999999 31.8869999999999,33.2260000000001 31.8869999999999,33.2260000000001 C31.8869999999999,32.2 31.986,31.4659999999999 32.1849999999999,31.0440000000001 C32.615,30.1320000000001 33.176,28.569 33.458,26.962 C34.274,25.819 34.885,24.261 35.276,22.3140000000001 C35.731,20.0360000000001 35.576,18.8599999999999 35.145,17.7139999999999 C35.129,17.1010000000001 35.246,15.163 35.543,13.5309999999999 C35.915,11.489 35.349,8.05999999999995 33.228,5.35500000000002 C31.803,3.53400000000011 29.101,1.29999999999995 24.33,0.99900000000002 C24.33,0.99900000000002 23.467,0.99499999999989 23.467,0.99499999999989 C23.467,0.99499999999989 22.611,0.99900000000002 22.611,0.99900000000002 C17.84,1.29999999999995 15.139,3.53400000000011 13.7140000000001,5.35300000000007 C11.592,8.05999999999995 11.026,11.489 11.399,13.529 C11.693,15.1590000000001 11.811,17.087 11.797,17.7080000000001 C11.369,18.825 11.203,20.001 11.6660000000001,22.316 C12.058,24.261 12.668,25.8209999999999 13.4829999999999,26.962 C13.765,28.569 14.327,30.1320000000001 14.756,31.048 C14.955,31.4659999999999 15.055,32.2 15.055,33.2260000000001 C15.055,33.2260000000001 15.053,33.624 15.053,33.624 C15.053,33.624 15.053,33.732 15.053,33.732 C15.0650000000001,34.1690000000001 14.927,34.7819999999999 14.838,34.894 C1.66899999999998,38.9290000000001 0.80600000000004,43.9380000000001 0.99199999999996,51.116 C1.00800000000004,51.7339999999999 1.02499999999998,52.3620000000001 1.02499999999998,53.0050000000001 C1.02499999999998,53.0050000000001 1.02499999999998,55.0050000000001 1.02499999999998,55.0050000000001 C1.02499999999998,55.0050000000001 30.577,55.0050000000001 30.577,55.0050000000001 C30.577,55.0050000000001 33.371,55.0050000000001 33.371,55.0050000000001 C33.371,55.0050000000001 38.704,55.0050000000001 38.704,55.0050000000001 C38.704,55.0050000000001 45.917,55.0050000000001 45.917,55.0050000000001 C47.64,55.0050000000001 49.1609999999999,55.0050000000001 50.167,55.0050000000001 C50.957,55.0050000000001 51.438,55.0050000000001 51.438,55.0050000000001 C51.438,55.0050000000001 51.563,55.0050000000001 51.563,55.0050000000001 C51.563,55.0050000000001 51.563,55.0050000000001 51.563,55.0050000000001 C51.563,55.0050000000001 51.688,55.0050000000001 51.688,55.0050000000001 C51.688,55.0050000000001 52.167,55.0050000000001 52.9589999999999,55.0050000000001 C55.299,55.0050000000001 52.796,55.0050000000001 56.795,55.0050000000001 C59.482,55.0050000000001 61.658,55.0050000000001 62.126,55.0050000000001 C62.126,55.0050000000001 64.975,55.0050000000001 64.975,55.0050000000001 C64.902,51.1849999999999 66.349,45.03 54.5069999999999,41.4010000000001 ZM16.008,38.72 C18.682,37.9010000000001 19.11,34.8389999999999 19.051,33.605 C19.051,33.605 19.053,33.2260000000001 19.053,33.2260000000001 C19.053,31.5599999999999 18.836,30.3230000000001 18.374,29.3430000000001 C18.001,28.55 17.525,27.1279999999999 17.361,25.8820000000001 C17.361,25.8820000000001 17.282,25.288 17.282,25.288 C17.282,25.288 16.89,24.835 16.89,24.835 C16.64,24.546 16.0119999999999,23.6420000000001 15.586,21.528 C15.251,19.8530000000001 15.407,19.454 15.568,19.04 C15.61,18.931 15.649,18.819 15.684,18.7 C15.684,18.7 15.717,18.566 15.717,18.566 C15.936,17.55 15.635,14.482 15.331,12.8109999999999 C15.184,12.0070000000001 15.366,9.72700000000009 16.861,7.82099999999991 C17.776,6.65100000000007 19.549,5.21599999999989 22.803,4.99499999999989 C22.803,4.99499999999989 23.4690000000001,4.99499999999989 23.4690000000001,4.99499999999989 C23.4690000000001,4.99499999999989 24.139,4.99499999999989 24.139,4.99499999999989 C27.393,5.21599999999989 29.165,6.65100000000007 30.081,7.82099999999991 C31.576,9.72700000000009 31.756,12.0070000000001 31.61,12.8130000000001 C31.307,14.482 31.006,17.55 31.224,18.566 C31.224,18.566 31.254,18.6890000000001 31.254,18.6890000000001 C31.289,18.8130000000001 31.33,18.9290000000001 31.399,19.105 C31.535,19.454 31.6900000000001,19.8530000000001 31.355,21.528 C30.93,23.6420000000001 30.302,24.546 30.051,24.835 C30.051,24.835 29.659,25.288 29.659,25.288 C29.659,25.288 29.581,25.8800000000001 29.581,25.8800000000001 C29.4160000000001,27.1300000000001 28.9400000000001,28.55 28.569,29.3389999999999 C28.104,30.3230000000001 27.889,31.5599999999999 27.889,33.2260000000001 C27.889,33.2260000000001 27.891,33.605 27.891,33.605 C27.832,34.8409999999999 28.26,37.9010000000001 30.932,38.7180000000001 C42.176,42.165 42.096,45.4929999999999 41.952,51.0050000000001 C41.952,51.0050000000001 4.98900000000003,51.0050000000001 4.98900000000003,51.0050000000001 C4.84500000000003,45.4929999999999 4.76499999999999,42.165 16.008,38.72 Z "/>
<path fill="url(#PSgrad_0)"
 d="M54.5069999999999,41.4010000000001 C53.048,40.954 53.14,38.769 53.14,38.7570000000001 C53.138,38.6379999999999 53.138,38.5170000000001 53.138,38.394 C53.138,37.251 53.268,36.442 53.549,35.847 C53.931,35.0360000000001 54.384,33.671 54.546,32.4459999999999 C55,31.9190000000001 55.619,30.8800000000001 56.016,28.8989999999999 C56.365,27.155 56.203,26.519 55.971,25.923 C55.947,25.8610000000001 55.922,25.798 55.902,25.73 C55.817,25.327 55.937,23.202 56.236,21.5519999999999 C56.442,20.4190000000001 56.183,18.0129999999999 54.622,16.0219999999999 C53.636,14.7629999999999 51.751,13.2180000000001 48.365,13.0050000000001 C48.365,13.0050000000001 47.75,13.0050000000001 47.75,13.0050000000001 C47.75,13.0050000000001 47.748,13.0050000000001 47.748,13.0050000000001 C47.748,13.0050000000001 47.748,13.0050000000001 47.748,13.0050000000001 C47.748,13.0050000000001 47.1319999999999,13.0050000000001 47.1319999999999,13.0050000000001 C43.746,13.2180000000001 41.861,14.7629999999999 40.876,16.0219999999999 C39.3150000000001,18.0129999999999 39.055,20.4190000000001 39.2619999999999,21.5519999999999 C39.561,23.202 39.682,25.327 39.596,25.73 C39.576,25.798 39.551,25.8610000000001 39.528,25.923 C39.295,26.519 39.1319999999999,27.155 39.482,28.8989999999999 C39.879,30.8800000000001 40.498,31.9190000000001 40.953,32.4459999999999 C41.115,33.671 41.568,35.0360000000001 41.948,35.847 C42.229,36.442 42.36,37.251 42.36,38.394 C42.36,38.5170000000001 42.36,38.6379999999999 42.3579999999999,38.7570000000001 C42.3579999999999,38.7629999999999 42.374,39.2650000000001 42.2380000000001,39.835 C40.172,38.0229999999999 37.001,36.405 32.154,34.925 C32.014,34.7819999999999 31.877,34.1690000000001 31.884,33.806 C31.884,33.806 31.891,33.7139999999999 31.891,33.7139999999999 C31.891,33.7139999999999 31.8869999999999,33.2260000000001 31.8869999999999,33.2260000000001 C31.8869999999999,32.2 31.986,31.4659999999999 32.1849999999999,31.0440000000001 C32.615,30.1320000000001 33.176,28.569 33.458,26.962 C34.274,25.819 34.885,24.261 35.276,22.3140000000001 C35.731,20.0360000000001 35.576,18.8599999999999 35.145,17.7139999999999 C35.129,17.1010000000001 35.246,15.163 35.543,13.5309999999999 C35.915,11.489 35.349,8.05999999999995 33.228,5.35500000000002 C31.803,3.53400000000011 29.101,1.29999999999995 24.33,0.99900000000002 C24.33,0.99900000000002 23.467,0.99499999999989 23.467,0.99499999999989 C23.467,0.99499999999989 22.611,0.99900000000002 22.611,0.99900000000002 C17.84,1.29999999999995 15.139,3.53400000000011 13.7140000000001,5.35300000000007 C11.592,8.05999999999995 11.026,11.489 11.399,13.529 C11.693,15.1590000000001 11.811,17.087 11.797,17.7080000000001 C11.369,18.825 11.203,20.001 11.6660000000001,22.316 C12.058,24.261 12.668,25.8209999999999 13.4829999999999,26.962 C13.765,28.569 14.327,30.1320000000001 14.756,31.048 C14.955,31.4659999999999 15.055,32.2 15.055,33.2260000000001 C15.055,33.2260000000001 15.053,33.624 15.053,33.624 C15.053,33.624 15.053,33.732 15.053,33.732 C15.0650000000001,34.1690000000001 14.927,34.7819999999999 14.838,34.894 C1.66899999999998,38.9290000000001 0.80600000000004,43.9380000000001 0.99199999999996,51.116 C1.00800000000004,51.7339999999999 1.02499999999998,52.3620000000001 1.02499999999998,53.0050000000001 C1.02499999999998,53.0050000000001 1.02499999999998,55.0050000000001 1.02499999999998,55.0050000000001 C1.02499999999998,55.0050000000001 30.577,55.0050000000001 30.577,55.0050000000001 C30.577,55.0050000000001 33.371,55.0050000000001 33.371,55.0050000000001 C33.371,55.0050000000001 38.704,55.0050000000001 38.704,55.0050000000001 C38.704,55.0050000000001 45.917,55.0050000000001 45.917,55.0050000000001 C47.64,55.0050000000001 49.1609999999999,55.0050000000001 50.167,55.0050000000001 C50.957,55.0050000000001 51.438,55.0050000000001 51.438,55.0050000000001 C51.438,55.0050000000001 51.563,55.0050000000001 51.563,55.0050000000001 C51.563,55.0050000000001 51.563,55.0050000000001 51.563,55.0050000000001 C51.563,55.0050000000001 51.688,55.0050000000001 51.688,55.0050000000001 C51.688,55.0050000000001 52.167,55.0050000000001 52.9589999999999,55.0050000000001 C55.299,55.0050000000001 52.796,55.0050000000001 56.795,55.0050000000001 C59.482,55.0050000000001 61.658,55.0050000000001 62.126,55.0050000000001 C62.126,55.0050000000001 64.975,55.0050000000001 64.975,55.0050000000001 C64.902,51.1849999999999 66.349,45.03 54.5069999999999,41.4010000000001 ZM16.008,38.72 C18.682,37.9010000000001 19.11,34.8389999999999 19.051,33.605 C19.051,33.605 19.053,33.2260000000001 19.053,33.2260000000001 C19.053,31.5599999999999 18.836,30.3230000000001 18.374,29.3430000000001 C18.001,28.55 17.525,27.1279999999999 17.361,25.8820000000001 C17.361,25.8820000000001 17.282,25.288 17.282,25.288 C17.282,25.288 16.89,24.835 16.89,24.835 C16.64,24.546 16.0119999999999,23.6420000000001 15.586,21.528 C15.251,19.8530000000001 15.407,19.454 15.568,19.04 C15.61,18.931 15.649,18.819 15.684,18.7 C15.684,18.7 15.717,18.566 15.717,18.566 C15.936,17.55 15.635,14.482 15.331,12.8109999999999 C15.184,12.0070000000001 15.366,9.72700000000009 16.861,7.82099999999991 C17.776,6.65100000000007 19.549,5.21599999999989 22.803,4.99499999999989 C22.803,4.99499999999989 23.4690000000001,4.99499999999989 23.4690000000001,4.99499999999989 C23.4690000000001,4.99499999999989 24.139,4.99499999999989 24.139,4.99499999999989 C27.393,5.21599999999989 29.165,6.65100000000007 30.081,7.82099999999991 C31.576,9.72700000000009 31.756,12.0070000000001 31.61,12.8130000000001 C31.307,14.482 31.006,17.55 31.224,18.566 C31.224,18.566 31.254,18.6890000000001 31.254,18.6890000000001 C31.289,18.8130000000001 31.33,18.9290000000001 31.399,19.105 C31.535,19.454 31.6900000000001,19.8530000000001 31.355,21.528 C30.93,23.6420000000001 30.302,24.546 30.051,24.835 C30.051,24.835 29.659,25.288 29.659,25.288 C29.659,25.288 29.581,25.8800000000001 29.581,25.8800000000001 C29.4160000000001,27.1300000000001 28.9400000000001,28.55 28.569,29.3389999999999 C28.104,30.3230000000001 27.889,31.5599999999999 27.889,33.2260000000001 C27.889,33.2260000000001 27.891,33.605 27.891,33.605 C27.832,34.8409999999999 28.26,37.9010000000001 30.932,38.7180000000001 C42.176,42.165 42.096,45.4929999999999 41.952,51.0050000000001 C41.952,51.0050000000001 4.98900000000003,51.0050000000001 4.98900000000003,51.0050000000001 C4.84500000000003,45.4929999999999 4.76499999999999,42.165 16.008,38.72 Z "/>
</svg>
