<?xml version="1.0" encoding="utf-8"?>
<!DOCTYPE svg PUBLIC "-//W3C//DTD SVG 1.1//EN" "http://www.w3.org/Graphics/SVG/1.1/DTD/svg11.dtd">
<svg version="1.1" baseProfile="full"
 xmlns="http://www.w3.org/2000/svg"
 xmlns:xlink="http://www.w3.org/1999/xlink"
 xmlns:ev="http://www.w3.org/2001/xml-events" 
  height="60px" 
  width="64px" 
>
<defs>
<linearGradient id="PSgrad_0" x1="0%" x2="30.902%" y1="95.106%" y2="0%">
  <stop offset="0%" stop-color="rgb(18,71,143)" stop-opacity="1" />
  <stop offset="100%" stop-color="rgb(233,50,50)" stop-opacity="1" />
</linearGradient>

</defs><path fill="rgb( 0, 0, 0 )"
 d="M45.125,0.99900000000002 C40.176,0.99900000000002 35.504,2.91599999999994 32,6.32300000000009 C28.496,2.91599999999994 23.824,0.99900000000002 18.875,0.99900000000002 C8.46699999999998,0.99900000000002 0,9.47600000000011 0,19.895 C0,22.7660000000001 0.64700000000005,25.548 1.88599999999997,28.088 C8.39800000000002,42.9929999999999 29.9690000000001,57.634 30.885,58.25 C30.885,58.25 32,59.001 32,59.001 C32,59.001 33.115,58.25 33.115,58.25 C34.0309999999999,57.634 55.602,42.9929999999999 62.08,28.164 C63.353,25.547 64,22.7650000000001 64,19.895 C64,9.47600000000011 55.533,0.99900000000002 45.125,0.99900000000002 ZM33.176,53.297 C32.727,53.625 32.328,53.913 32,54.146 C27.5119999999999,50.95 10.787,38.47 5.51599999999996,26.4079999999999 C4.50999999999999,24.3440000000001 4,22.152 4,19.895 C4,11.684 10.673,5.00399999999991 18.875,5.00399999999991 C23.385,5.00399999999991 27.602,7.02399999999989 30.444,10.547 C30.444,10.547 32,12.4749999999999 32,12.4749999999999 C39.146,3.13699999999994 51.99,5.6880000000001 51.99,21.3050000000001 C51.99,34.6279999999999 37.449,49.278 33.176,53.297 Z "/>
<path fill="url(#PSgrad_0)"
 d="M45.125,0.99900000000002 C40.176,0.99900000000002 35.504,2.91599999999994 32,6.32300000000009 C28.496,2.91599999999994 23.824,0.99900000000002 18.875,0.99900000000002 C8.46699999999998,0.99900000000002 0,9.47600000000011 0,19.895 C0,22.7660000000001 0.64700000000005,25.548 1.88599999999997,28.088 C8.39800000000002,42.9929999999999 29.9690000000001,57.634 30.885,58.25 C30.885,58.25 32,59.001 32,59.001 C32,59.001 33.115,58.25 33.115,58.25 C34.0309999999999,57.634 55.602,42.9929999999999 62.08,28.164 C63.353,25.547 64,22.7650000000001 64,19.895 C64,9.47600000000011 55.533,0.99900000000002 45.125,0.99900000000002 ZM33.176,53.297 C32.727,53.625 32.328,53.913 32,54.146 C27.5119999999999,50.95 10.787,38.47 5.51599999999996,26.4079999999999 C4.50999999999999,24.3440000000001 4,22.152 4,19.895 C4,11.684 10.673,5.00399999999991 18.875,5.00399999999991 C23.385,5.00399999999991 27.602,7.02399999999989 30.444,10.547 C30.444,10.547 32,12.4749999999999 32,12.4749999999999 C39.146,3.13699999999994 51.99,5.6880000000001 51.99,21.3050000000001 C51.99,34.6279999999999 37.449,49.278 33.176,53.297 Z "/>
</svg>
