<?xml version="1.0" encoding="utf-8"?>
<!DOCTYPE svg PUBLIC "-//W3C//DTD SVG 1.1//EN" "http://www.w3.org/Graphics/SVG/1.1/DTD/svg11.dtd">
<svg version="1.1" baseProfile="full"
 xmlns="http://www.w3.org/2000/svg"
 xmlns:xlink="http://www.w3.org/1999/xlink"
 xmlns:ev="http://www.w3.org/2001/xml-events" 
  height="64px" 
  width="64px" 
>
<defs>
<linearGradient id="PSgrad_0" x1="0%" x2="30.902%" y1="95.106%" y2="0%">
  <stop offset="0%" stop-color="rgb(18,71,143)" stop-opacity="1" />
  <stop offset="100%" stop-color="rgb(233,50,50)" stop-opacity="1" />
</linearGradient>

</defs><path fill="rgb( 0, 0, 0 )"
 d="M59.915,48.615 C58.814,47.8869999999999 57.672,47.1990000000001 56.484,46.558 C58.777,42.424 60,37.759 60,32.9960000000001 C60,17.557 47.439,4.99600000000009 32,4.99600000000009 C16.56,4.99600000000009 4,17.557 4,32.9960000000001 C4,37.768 5.22699999999998,42.4400000000001 7.52699999999999,46.579 C6.34199999999998,47.221 5.19900000000001,47.9110000000001 4.10000000000002,48.6410000000001 C1.42599999999999,43.8779999999999 0,38.4939999999999 0,32.9960000000001 C0,15.3520000000001 14.356,0.99600000000009 32,0.99600000000009 C49.645,0.99600000000009 64,15.3520000000001 64,32.9960000000001 C64,38.4829999999999 62.58,43.8579999999999 59.915,48.615 ZM32.023,11.9690000000001 C43.602,11.9690000000001 53.023,21.3920000000001 53.023,32.9749999999999 C53.023,36.777 52,40.4570000000001 50.072,43.6959999999999 C48.793,43.2329999999999 47.482,42.8130000000001 46.141,42.4490000000001 C48.025,39.645 49.023,36.3689999999999 49.023,32.9749999999999 C49.023,23.598 41.397,15.9690000000001 32.023,15.9690000000001 C22.648,15.9690000000001 15.023,23.598 15.023,32.9749999999999 C15.023,36.3710000000001 16.019,39.6469999999999 17.906,42.45 C16.564,42.8150000000001 15.254,43.2349999999999 13.975,43.6990000000001 C12.045,40.4590000000001 11.023,36.779 11.023,32.9749999999999 C11.023,21.3920000000001 20.443,11.9690000000001 32.023,11.9690000000001 ZM23.031,33.01 C23.031,26.9349999999999 27.061,23.01 32.031,23.01 C37.002,23.01 41.031,26.9349999999999 41.031,33.01 C41.031,39.085 37.002,45.01 32.031,45.01 C27.061,45.01 23.031,39.085 23.031,33.01 ZM32.026,48.9549999999999 C42.252,48.9549999999999 50.67,55.0920000000001 51.862,63.0039999999999 C51.862,63.0039999999999 12.191,63.0039999999999 12.191,63.0039999999999 C13.383,55.0920000000001 21.801,48.9549999999999 32.026,48.9549999999999 Z "/>
<path fill="url(#PSgrad_0)"
 d="M59.915,48.615 C58.814,47.8869999999999 57.672,47.1990000000001 56.484,46.558 C58.777,42.424 60,37.759 60,32.9960000000001 C60,17.557 47.439,4.99600000000009 32,4.99600000000009 C16.56,4.99600000000009 4,17.557 4,32.9960000000001 C4,37.768 5.22699999999998,42.4400000000001 7.52699999999999,46.579 C6.34199999999998,47.221 5.19900000000001,47.9110000000001 4.10000000000002,48.6410000000001 C1.42599999999999,43.8779999999999 0,38.4939999999999 0,32.9960000000001 C0,15.3520000000001 14.356,0.99600000000009 32,0.99600000000009 C49.645,0.99600000000009 64,15.3520000000001 64,32.9960000000001 C64,38.4829999999999 62.58,43.8579999999999 59.915,48.615 ZM32.023,11.9690000000001 C43.602,11.9690000000001 53.023,21.3920000000001 53.023,32.9749999999999 C53.023,36.777 52,40.4570000000001 50.072,43.6959999999999 C48.793,43.2329999999999 47.482,42.8130000000001 46.141,42.4490000000001 C48.025,39.645 49.023,36.3689999999999 49.023,32.9749999999999 C49.023,23.598 41.397,15.9690000000001 32.023,15.9690000000001 C22.648,15.9690000000001 15.023,23.598 15.023,32.9749999999999 C15.023,36.3710000000001 16.019,39.6469999999999 17.906,42.45 C16.564,42.8150000000001 15.254,43.2349999999999 13.975,43.6990000000001 C12.045,40.4590000000001 11.023,36.779 11.023,32.9749999999999 C11.023,21.3920000000001 20.443,11.9690000000001 32.023,11.9690000000001 ZM23.031,33.01 C23.031,26.9349999999999 27.061,23.01 32.031,23.01 C37.002,23.01 41.031,26.9349999999999 41.031,33.01 C41.031,39.085 37.002,45.01 32.031,45.01 C27.061,45.01 23.031,39.085 23.031,33.01 ZM32.026,48.9549999999999 C42.252,48.9549999999999 50.67,55.0920000000001 51.862,63.0039999999999 C51.862,63.0039999999999 12.191,63.0039999999999 12.191,63.0039999999999 C13.383,55.0920000000001 21.801,48.9549999999999 32.026,48.9549999999999 Z "/>
</svg>
