<?xml version="1.0" encoding="utf-8"?>
<!DOCTYPE svg PUBLIC "-//W3C//DTD SVG 1.1//EN" "http://www.w3.org/Graphics/SVG/1.1/DTD/svg11.dtd">
<svg version="1.1" baseProfile="full"
 xmlns="http://www.w3.org/2000/svg"
 xmlns:xlink="http://www.w3.org/1999/xlink"
 xmlns:ev="http://www.w3.org/2001/xml-events" 
  height="51px" 
  width="64px" 
>
<defs>
<linearGradient id="PSgrad_0" x1="0%" x2="30.902%" y1="95.106%" y2="0%">
  <stop offset="0%" stop-color="rgb(18,71,143)" stop-opacity="1" />
  <stop offset="100%" stop-color="rgb(233,50,50)" stop-opacity="1" />
</linearGradient>

</defs><path fill="rgb( 0, 0, 0 )"
 d="M61,21 C61,21 57.1300000000001,21 57.1300000000001,21 C56.6420000000001,19.473 55.9380000000001,18.01 55.0519999999999,16.6179999999999 C55.9849999999999,14.1869999999999 57.5129999999999,10.182 58.413,7.67599999999993 C58.413,7.67599999999993 59.375,5 59.375,5 C59.375,5 56.5309999999999,5 56.5309999999999,5 C55.6569999999999,5 48.8520000000001,5.11400000000003 45.481,8.3900000000001 C44.634,7.95299999999997 43.8689999999999,7.66300000000001 42.8399999999999,7.33999999999992 C42.058,3.1690000000001 38.394,0 34,0 C29.595,0 25.9269999999999,3.18299999999999 25.155,7.36899999999991 C16.7059999999999,10.2360000000001 10.876,16.9849999999999 10.096,24.6900000000001 C9.65300000000002,24.568 9.19800000000009,24.414 8.74299999999994,24.2329999999999 C9.55099999999993,22.9059999999999 10,21.4380000000001 10,20 C10,17.2380000000001 7.76299999999992,15 5,15 C2.27999999999997,15 0.07999999999993,17.173 0.01299999999992,19.875 C0.01299999999992,19.875 0.00500000000011,19.875 0.00500000000011,19.875 C0.00500000000011,19.8889999999999 0.00900000000001,19.9010000000001 0.00900000000001,19.914 C0.00900000000001,19.944 0,19.971 0,20 C0,20.5350000000001 0.10599999999999,21.0409999999999 0.26199999999994,21.5239999999999 C0.60100000000011,22.6800000000001 1.26900000000001,23.7260000000001 2.15100000000007,24.645 C1.50800000000004,24.8589999999999 0.79199999999992,24.9880000000001 0,24.9880000000001 C0,24.9880000000001 0,28.9880000000001 0,28.9880000000001 C2.25099999999998,28.9880000000001 4.22399999999993,28.328 5.80999999999995,27.2750000000001 C7.26800000000003,28.018 8.80099999999993,28.537 10.1690000000001,28.7950000000001 C10.72,32.962 12.741,36.855 16,40.02 C16,40.02 16,48 16,48 C16,49.654 17.346,51 19,51 C19,51 25,51 25,51 C26.654,51 28,49.654 28,48 C28,48 28,46.3499999999999 28,46.3499999999999 C29.942,46.777 31.9459999999999,47 34.001,47 C36.046,47 38.0509999999999,46.768 40,46.338 C40,46.338 40,48 40,48 C40,49.654 41.346,51 43,51 C43,51 49,51 49,51 C50.654,51 52,49.654 52,48 C52,48 52,40.0509999999999 52,40.0509999999999 C53.558,38.538 54.856,36.8299999999999 55.835,35 C55.835,35 61,35 61,35 C62.654,35 64,33.654 64,32 C64,32 64,24 64,24 C64,22.346 62.654,21 61,21 ZM5,19 C5.45000000000005,19 5.81700000000001,19.3050000000001 5.94200000000001,19.7139999999999 C5.97600000000011,19.7909999999999 6,19.8810000000001 6,20 C6,21.018 5.31899999999996,21.73 5.08500000000004,21.9469999999999 C4.44599999999991,21.3050000000001 4.03600000000006,20.617 4.01299999999992,19.9359999999999 C4.048,19.4159999999999 4.47199999999998,19 5,19 ZM60,31 C60,31 54.5889999999999,31 54.5889999999999,31 C53.8009999999999,31 53.086,31.463 52.7639999999999,32.184 C51.723,34.51 50.0239999999999,36.653 47.8510000000001,38.3800000000001 C46.9870000000001,39.067 46.8430000000001,40.326 47.53,41.1890000000001 C47.6659999999999,41.3589999999999 47.828,41.491 48,41.605 C48,41.605 48,47 48,47 C48,47 44,47 44,47 C44,47 44,43 44,43 C44,41.896 43.104,41 42,41 C41.1900000000001,41 40.4970000000001,41.4829999999999 40.183,42.1759999999999 C38.194,42.712 36.124,43 34,43 C30.752,43 27.653,42.375 24.7909999999999,41.1410000000001 C23.778,40.7049999999999 22.6010000000001,41.172 22.163,42.1859999999999 C21.7260000000001,43.2 22.193,44.377 23.2080000000001,44.8140000000001 C23.47,44.9280000000001 23.7349999999999,45.027 24,45.1310000000001 C24,45.1310000000001 24,47 24,47 C24,47 20,47 20,47 C20,47 20,40 20,40 C20,39.856 19.9829999999999,39.7149999999999 19.954,39.578 C20.088,38.905 19.8810000000001,38.183 19.3330000000001,37.693 C15.893,34.623 13.999,30.633 14,26.4570000000001 C14,20.0820000000001 18.5070000000001,14.269 25.376,11.54 C25.6590000000001,12.4970000000001 26.0930000000001,13.3900000000001 26.6569999999999,14.1859999999999 C25.835,14.4659999999999 25.0070000000001,14.788 24.1379999999999,15.1559999999999 C24.1379999999999,15.1559999999999 25.694,18.8399999999999 25.694,18.8399999999999 C28.519,17.6469999999999 30.6780000000001,17 34,17 C37.3230000000001,17 39.4829999999999,17.6469999999999 42.308,18.8409999999999 C42.308,18.8409999999999 43.864,15.1559999999999 43.864,15.1559999999999 C43.0029999999999,14.7919999999999 42.1700000000001,14.47 41.335,14.1869999999999 C41.9100000000001,13.377 42.357,12.472 42.6420000000001,11.4960000000001 C43.414,11.788 43.9970000000001,12.1010000000001 44.933,12.691 C44.954,12.7049999999999 44.9780000000001,12.7080000000001 45,12.721 C45.0440000000001,12.7470000000001 45.0809999999999,12.778 45.1279999999999,12.8 C45.212,12.8399999999999 45.298,12.866 45.385,12.894 C45.4159999999999,12.904 45.4459999999999,12.9200000000001 45.4780000000001,12.9280000000001 C45.6369999999999,12.971 45.798,12.992 45.9580000000001,12.9949999999999 C45.972,12.9949999999999 45.9849999999999,13 45.998,13 C46.03,13 46.0599999999999,12.99 46.0920000000001,12.989 C46.1980000000001,12.9839999999999 46.3040000000001,12.972 46.4090000000001,12.95 C46.4580000000001,12.9390000000001 46.5070000000001,12.9280000000001 46.5550000000001,12.914 C46.662,12.883 46.7660000000001,12.8420000000001 46.866,12.7929999999999 C46.9010000000001,12.7760000000001 46.9380000000001,12.7629999999999 46.9739999999999,12.7439999999999 C47.104,12.671 47.2280000000001,12.5840000000001 47.3389999999999,12.482 C47.364,12.4590000000001 47.386,12.431 47.4090000000001,12.4069999999999 C47.4960000000001,12.3199999999999 47.575,12.2260000000001 47.646,12.123 C47.6590000000001,12.1030000000001 47.6780000000001,12.088 47.6900000000001,12.068 C47.712,12.0360000000001 47.723,12.001 47.741,11.9670000000001 C47.759,11.9349999999999 47.7829999999999,11.9059999999999 47.8,11.8720000000001 C48.47,10.491 51.0640000000001,9.63000000000011 53.575,9.24199999999996 C52.204,12.904 50.5419999999999,17.1990000000001 50.52,17.2539999999999 C50.1210000000001,18.2840000000001 50.633,19.442 51.663,19.8420000000001 C51.893,19.932 52.1320000000001,19.973 52.366,19.9749999999999 C52.9400000000001,21.087 53.383,22.241 53.6510000000001,23.4380000000001 C53.855,24.3499999999999 54.6669999999999,25 55.6020000000001,25 C55.6020000000001,25 60,25 60,25 C60,25 60,31 60,31 Z "/>
<path fill="url(#PSgrad_0)"
 d="M61,21 C61,21 57.1300000000001,21 57.1300000000001,21 C56.6420000000001,19.473 55.9380000000001,18.01 55.0519999999999,16.6179999999999 C55.9849999999999,14.1869999999999 57.5129999999999,10.182 58.413,7.67599999999993 C58.413,7.67599999999993 59.375,5 59.375,5 C59.375,5 56.5309999999999,5 56.5309999999999,5 C55.6569999999999,5 48.8520000000001,5.11400000000003 45.481,8.3900000000001 C44.634,7.95299999999997 43.8689999999999,7.66300000000001 42.8399999999999,7.33999999999992 C42.058,3.1690000000001 38.394,0 34,0 C29.595,0 25.9269999999999,3.18299999999999 25.155,7.36899999999991 C16.7059999999999,10.2360000000001 10.876,16.9849999999999 10.096,24.6900000000001 C9.65300000000002,24.568 9.19800000000009,24.414 8.74299999999994,24.2329999999999 C9.55099999999993,22.9059999999999 10,21.4380000000001 10,20 C10,17.2380000000001 7.76299999999992,15 5,15 C2.27999999999997,15 0.07999999999993,17.173 0.01299999999992,19.875 C0.01299999999992,19.875 0.00500000000011,19.875 0.00500000000011,19.875 C0.00500000000011,19.8889999999999 0.00900000000001,19.9010000000001 0.00900000000001,19.914 C0.00900000000001,19.944 0,19.971 0,20 C0,20.5350000000001 0.10599999999999,21.0409999999999 0.26199999999994,21.5239999999999 C0.60100000000011,22.6800000000001 1.26900000000001,23.7260000000001 2.15100000000007,24.645 C1.50800000000004,24.8589999999999 0.79199999999992,24.9880000000001 0,24.9880000000001 C0,24.9880000000001 0,28.9880000000001 0,28.9880000000001 C2.25099999999998,28.9880000000001 4.22399999999993,28.328 5.80999999999995,27.2750000000001 C7.26800000000003,28.018 8.80099999999993,28.537 10.1690000000001,28.7950000000001 C10.72,32.962 12.741,36.855 16,40.02 C16,40.02 16,48 16,48 C16,49.654 17.346,51 19,51 C19,51 25,51 25,51 C26.654,51 28,49.654 28,48 C28,48 28,46.3499999999999 28,46.3499999999999 C29.942,46.777 31.9459999999999,47 34.001,47 C36.046,47 38.0509999999999,46.768 40,46.338 C40,46.338 40,48 40,48 C40,49.654 41.346,51 43,51 C43,51 49,51 49,51 C50.654,51 52,49.654 52,48 C52,48 52,40.0509999999999 52,40.0509999999999 C53.558,38.538 54.856,36.8299999999999 55.835,35 C55.835,35 61,35 61,35 C62.654,35 64,33.654 64,32 C64,32 64,24 64,24 C64,22.346 62.654,21 61,21 ZM5,19 C5.45000000000005,19 5.81700000000001,19.3050000000001 5.94200000000001,19.7139999999999 C5.97600000000011,19.7909999999999 6,19.8810000000001 6,20 C6,21.018 5.31899999999996,21.73 5.08500000000004,21.9469999999999 C4.44599999999991,21.3050000000001 4.03600000000006,20.617 4.01299999999992,19.9359999999999 C4.048,19.4159999999999 4.47199999999998,19 5,19 ZM60,31 C60,31 54.5889999999999,31 54.5889999999999,31 C53.8009999999999,31 53.086,31.463 52.7639999999999,32.184 C51.723,34.51 50.0239999999999,36.653 47.8510000000001,38.3800000000001 C46.9870000000001,39.067 46.8430000000001,40.326 47.53,41.1890000000001 C47.6659999999999,41.3589999999999 47.828,41.491 48,41.605 C48,41.605 48,47 48,47 C48,47 44,47 44,47 C44,47 44,43 44,43 C44,41.896 43.104,41 42,41 C41.1900000000001,41 40.4970000000001,41.4829999999999 40.183,42.1759999999999 C38.194,42.712 36.124,43 34,43 C30.752,43 27.653,42.375 24.7909999999999,41.1410000000001 C23.778,40.7049999999999 22.6010000000001,41.172 22.163,42.1859999999999 C21.7260000000001,43.2 22.193,44.377 23.2080000000001,44.8140000000001 C23.47,44.9280000000001 23.7349999999999,45.027 24,45.1310000000001 C24,45.1310000000001 24,47 24,47 C24,47 20,47 20,47 C20,47 20,40 20,40 C20,39.856 19.9829999999999,39.7149999999999 19.954,39.578 C20.088,38.905 19.8810000000001,38.183 19.3330000000001,37.693 C15.893,34.623 13.999,30.633 14,26.4570000000001 C14,20.0820000000001 18.5070000000001,14.269 25.376,11.54 C25.6590000000001,12.4970000000001 26.0930000000001,13.3900000000001 26.6569999999999,14.1859999999999 C25.835,14.4659999999999 25.0070000000001,14.788 24.1379999999999,15.1559999999999 C24.1379999999999,15.1559999999999 25.694,18.8399999999999 25.694,18.8399999999999 C28.519,17.6469999999999 30.6780000000001,17 34,17 C37.3230000000001,17 39.4829999999999,17.6469999999999 42.308,18.8409999999999 C42.308,18.8409999999999 43.864,15.1559999999999 43.864,15.1559999999999 C43.0029999999999,14.7919999999999 42.1700000000001,14.47 41.335,14.1869999999999 C41.9100000000001,13.377 42.357,12.472 42.6420000000001,11.4960000000001 C43.414,11.788 43.9970000000001,12.1010000000001 44.933,12.691 C44.954,12.7049999999999 44.9780000000001,12.7080000000001 45,12.721 C45.0440000000001,12.7470000000001 45.0809999999999,12.778 45.1279999999999,12.8 C45.212,12.8399999999999 45.298,12.866 45.385,12.894 C45.4159999999999,12.904 45.4459999999999,12.9200000000001 45.4780000000001,12.9280000000001 C45.6369999999999,12.971 45.798,12.992 45.9580000000001,12.9949999999999 C45.972,12.9949999999999 45.9849999999999,13 45.998,13 C46.03,13 46.0599999999999,12.99 46.0920000000001,12.989 C46.1980000000001,12.9839999999999 46.3040000000001,12.972 46.4090000000001,12.95 C46.4580000000001,12.9390000000001 46.5070000000001,12.9280000000001 46.5550000000001,12.914 C46.662,12.883 46.7660000000001,12.8420000000001 46.866,12.7929999999999 C46.9010000000001,12.7760000000001 46.9380000000001,12.7629999999999 46.9739999999999,12.7439999999999 C47.104,12.671 47.2280000000001,12.5840000000001 47.3389999999999,12.482 C47.364,12.4590000000001 47.386,12.431 47.4090000000001,12.4069999999999 C47.4960000000001,12.3199999999999 47.575,12.2260000000001 47.646,12.123 C47.6590000000001,12.1030000000001 47.6780000000001,12.088 47.6900000000001,12.068 C47.712,12.0360000000001 47.723,12.001 47.741,11.9670000000001 C47.759,11.9349999999999 47.7829999999999,11.9059999999999 47.8,11.8720000000001 C48.47,10.491 51.0640000000001,9.63000000000011 53.575,9.24199999999996 C52.204,12.904 50.5419999999999,17.1990000000001 50.52,17.2539999999999 C50.1210000000001,18.2840000000001 50.633,19.442 51.663,19.8420000000001 C51.893,19.932 52.1320000000001,19.973 52.366,19.9749999999999 C52.9400000000001,21.087 53.383,22.241 53.6510000000001,23.4380000000001 C53.855,24.3499999999999 54.6669999999999,25 55.6020000000001,25 C55.6020000000001,25 60,25 60,25 C60,25 60,31 60,31 Z "/>
</svg>
