<?xml version="1.0" encoding="utf-8"?>
<!DOCTYPE svg PUBLIC "-//W3C//DTD SVG 1.1//EN" "http://www.w3.org/Graphics/SVG/1.1/DTD/svg11.dtd">
<svg version="1.1" baseProfile="full"
 xmlns="http://www.w3.org/2000/svg"
 xmlns:xlink="http://www.w3.org/1999/xlink"
 xmlns:ev="http://www.w3.org/2001/xml-events" 
  height="64px" 
  width="38px" 
>
<defs>
<linearGradient id="PSgrad_0" x1="0%" x2="30.902%" y1="95.106%" y2="0%">
  <stop offset="0%" stop-color="rgb(18,71,143)" stop-opacity="1" />
  <stop offset="100%" stop-color="rgb(233,50,50)" stop-opacity="1" />
</linearGradient>

</defs><path fill="rgb( 0, 0, 0 )"
 d="M32.5,0 C32.5,0 5.5,0 5.5,0 C2.46699999999998,0 0,2.4670000000001 0,5.5 C0,5.5 0,58.5 0,58.5 C0,61.5319999999999 2.46699999999998,64 5.5,64 C5.5,64 32.5,64 32.5,64 C35.533,64 38,61.5319999999999 38,58.5 C38,58.5 38,5.5 38,5.5 C38,2.4670000000001 35.533,0 32.5,0 ZM15.994,4 C15.994,4 21.994,4 21.994,4 C22.547,4 22.994,4.44699999999989 22.994,5 C22.994,5.55199999999991 22.547,6 21.994,6 C21.994,6 15.994,6 15.994,6 C15.442,6 14.994,5.55199999999991 14.994,5 C14.994,4.44699999999989 15.442,4 15.994,4 ZM19,60 C17.3440000000001,60 16,58.6559999999999 16,56.999 C16,55.3430000000001 17.3440000000001,54 19,54 C20.6559999999999,54 22,55.3430000000001 22,56.999 C22,58.6559999999999 20.6559999999999,60 19,60 ZM33.994,50 C33.994,50 3.99400000000003,50 3.99400000000003,50 C3.99400000000003,50 3.99400000000003,10 3.99400000000003,10 C3.99400000000003,10 33.994,10 33.994,10 C33.994,10 33.994,50 33.994,50 Z "/>
<path fill="url(#PSgrad_0)"
 d="M32.5,0 C32.5,0 5.5,0 5.5,0 C2.46699999999998,0 0,2.4670000000001 0,5.5 C0,5.5 0,58.5 0,58.5 C0,61.5319999999999 2.46699999999998,64 5.5,64 C5.5,64 32.5,64 32.5,64 C35.533,64 38,61.5319999999999 38,58.5 C38,58.5 38,5.5 38,5.5 C38,2.4670000000001 35.533,0 32.5,0 ZM15.994,4 C15.994,4 21.994,4 21.994,4 C22.547,4 22.994,4.44699999999989 22.994,5 C22.994,5.55199999999991 22.547,6 21.994,6 C21.994,6 15.994,6 15.994,6 C15.442,6 14.994,5.55199999999991 14.994,5 C14.994,4.44699999999989 15.442,4 15.994,4 ZM19,60 C17.3440000000001,60 16,58.6559999999999 16,56.999 C16,55.3430000000001 17.3440000000001,54 19,54 C20.6559999999999,54 22,55.3430000000001 22,56.999 C22,58.6559999999999 20.6559999999999,60 19,60 ZM33.994,50 C33.994,50 3.99400000000003,50 3.99400000000003,50 C3.99400000000003,50 3.99400000000003,10 3.99400000000003,10 C3.99400000000003,10 33.994,10 33.994,10 C33.994,10 33.994,50 33.994,50 Z "/>
</svg>
